<svg width="18" height="18" viewBox="0 0 18 18" fill="none" xmlns="http://www.w3.org/2000/svg">
<path d="M1 9H5.44444M1 9C1 13.4183 4.58172 17 9 17M1 9C1 4.58172 4.58172 1 9 1M5.44444 9H12.5556M5.44444 9C5.44444 13.4183 7.03632 17 9 17M5.44444 9C5.44444 4.58172 7.03632 1 9 1M12.5556 9H17M12.5556 9C12.5556 4.58172 10.9637 1 9 1M12.5556 9C12.5556 13.4183 10.9637 17 9 17M17 9C17 4.58172 13.4183 1 9 1M17 9C17 13.4183 13.4183 17 9 17" stroke="#202020" stroke-linecap="round" stroke-linejoin="round"/>
</svg>
